<svg width="153" height="22" viewBox="0 0 153 22" fill="none" xmlns="http://www.w3.org/2000/svg">
<g clip-path="url(#clip0_175_649)">
<path d="M11.2674 11.5726C10.9969 9.84768 9.97908 8.98521 8.21396 8.98521C7.55506 8.98521 7.00329 9.1352 6.55598 9.43519C6.10868 9.73518 5.74708 10.1236 5.46584 10.5977C5.1846 11.0717 4.98639 11.6021 4.86854 12.1833C4.75336 12.7645 4.69444 13.327 4.69444 13.8708C4.69444 14.4145 4.75336 14.9663 4.86854 15.5287C4.98371 16.0912 5.17389 16.6001 5.43638 17.0555C5.69887 17.5108 6.05243 17.8831 6.49706 18.1751C6.94168 18.467 7.48542 18.6117 8.12557 18.6117C9.09518 18.6117 9.85052 18.3358 10.3942 17.784C10.938 17.2323 11.2755 16.4903 11.4121 15.5582H15.3977C15.1271 17.5564 14.3504 19.0831 13.0701 20.1384C11.7897 21.1964 10.1505 21.7241 8.15504 21.7241C7.01132 21.7241 5.97475 21.5339 5.04264 21.1562C4.11321 20.7786 3.3177 20.2456 2.65879 19.5572C1.99988 18.8688 1.48561 18.0546 1.11866 17.1144C0.749031 16.1743 0.566895 15.1404 0.566895 14.0181C0.566895 12.8958 0.735639 11.7735 1.07581 10.7744C1.41597 9.77536 1.91417 8.91289 2.57308 8.18702C3.23198 7.46115 4.03553 6.89331 4.98639 6.48618C5.93725 6.07905 7.02204 5.87549 8.24343 5.87549C9.13536 5.87549 9.99248 5.99066 10.8174 6.22369C11.6424 6.45672 12.3736 6.81028 13.0138 7.28437C13.654 7.75846 14.1816 8.35576 14.5995 9.0736C15.0173 9.79143 15.253 10.6244 15.3119 11.5753H11.2701L11.2674 11.5726Z" fill="#231F20"/>
<path d="M17.5471 10.9059C17.606 9.93632 17.8471 9.13278 18.273 8.49262C18.6988 7.85246 19.2426 7.33819 19.9015 6.95249C20.5604 6.56411 21.297 6.28823 22.1112 6.12484C22.9255 5.96145 23.7585 5.87842 24.6129 5.87842C25.3683 5.87842 26.1343 5.93199 26.9111 6.03913C27.6852 6.14627 28.395 6.35519 29.0351 6.66321C29.6753 6.97392 30.1976 7.41051 30.6047 7.97299C31.0118 8.53547 31.2154 9.26134 31.2154 10.1533V17.9771C31.2154 18.6548 31.2529 19.3057 31.3306 19.9244C31.4082 20.5458 31.5448 21.0092 31.7377 21.3199H27.5486C27.4709 21.0868 27.4066 20.8511 27.3584 20.6074C27.3102 20.3663 27.2753 20.1172 27.2566 19.8655C26.5977 20.5431 25.8209 21.0252 24.929 21.3038C24.0371 21.585 23.1264 21.727 22.1943 21.727C21.4764 21.727 20.8068 21.6359 20.1881 21.4511C19.5667 21.2663 19.0256 20.9904 18.5596 20.6235C18.0935 20.2565 17.7319 19.7905 17.4694 19.228C17.2069 18.6655 17.0757 17.9959 17.0757 17.2218C17.0757 16.37 17.2203 15.6656 17.5123 15.1138C17.8042 14.5621 18.1899 14.1201 18.6747 13.7907C19.1595 13.4612 19.706 13.2148 20.3166 13.0487C20.9273 12.8853 21.5514 12.7541 22.1916 12.655C22.8317 12.5586 23.4424 12.4809 24.0237 12.422C24.6049 12.363 25.1245 12.2773 25.5799 12.1595C26.0352 12.0443 26.3995 11.8729 26.67 11.6505C26.9405 11.4282 27.0771 11.1041 27.0771 10.6756C27.0771 10.247 27.0048 9.87472 26.8602 9.6149C26.7155 9.35509 26.52 9.14885 26.279 9.00421C26.0352 8.85957 25.7566 8.76314 25.4352 8.71225C25.1165 8.66404 24.771 8.63993 24.404 8.63993C23.6085 8.63993 22.9737 8.81404 22.4996 9.16224C22.0255 9.51044 21.747 10.0917 21.672 10.9086H17.5417L17.5471 10.9059ZM27.0852 13.9594C26.9111 14.1148 26.6914 14.2353 26.4316 14.3237C26.1691 14.4121 25.8879 14.4844 25.5879 14.5406C25.2879 14.5996 24.9665 14.6478 24.629 14.6853C24.2888 14.7254 23.9647 14.7737 23.654 14.8299C23.3246 14.8888 23.0139 14.9665 22.7246 15.0629C22.4326 15.1594 22.1755 15.2906 21.9532 15.4567C21.7309 15.6227 21.5514 15.8343 21.4148 16.0968C21.2782 16.3593 21.2113 16.6727 21.2113 17.0423C21.2113 17.4307 21.2782 17.7441 21.4148 17.9878C21.5514 18.2316 21.7336 18.4244 21.9666 18.5691C22.1996 18.7137 22.4701 18.8155 22.7809 18.8744C23.0916 18.9333 23.4103 18.9628 23.7397 18.9628C24.554 18.9628 25.1835 18.8262 25.6308 18.5557C26.0754 18.2852 26.4048 17.9584 26.6191 17.5807C26.8334 17.203 26.962 16.82 27.0129 16.4316C27.0611 16.0433 27.0852 15.7326 27.0852 15.5022V13.9621V13.9594Z" fill="#231F20"/>
<path d="M33.251 6.28018H37.1776V8.37475H37.266C37.7883 7.52299 38.4687 6.89087 39.3017 6.48374C40.1347 6.07661 40.9891 5.87305 41.8623 5.87305C42.9685 5.87305 43.8738 6.02304 44.581 6.32303C45.2881 6.62302 45.8452 7.04087 46.2523 7.57388C46.6595 8.1069 46.9461 8.75777 47.1094 9.52114C47.2728 10.2872 47.3559 11.1363 47.3559 12.0657V21.3145H43.2256V12.821C43.2256 11.5809 43.0274 10.6541 42.6283 10.0434C42.2319 9.43275 41.5462 9.1274 40.5793 9.1274C39.4543 9.1274 38.6401 9.46221 38.1365 10.1318C37.633 10.8015 37.3812 11.9023 37.3812 13.4317V21.3145H33.251V6.28018Z" fill="#231F20"/>
<path d="M49.3359 6.28018H53.2626V8.37475H53.351C53.8733 7.52299 54.5536 6.89087 55.3866 6.48374C56.2196 6.07661 57.0741 5.87305 57.9473 5.87305C59.0535 5.87305 59.9588 6.02304 60.6659 6.32303C61.373 6.62302 61.9302 7.04087 62.3373 7.57388C62.7444 8.1069 63.031 8.75777 63.1944 9.52114C63.3578 10.2872 63.4408 11.1363 63.4408 12.0657V21.3145H59.3106V12.821C59.3106 11.5809 59.1124 10.6541 58.7133 10.0434C58.3169 9.43275 57.6312 9.1274 56.6643 9.1274C55.5393 9.1274 54.725 9.46221 54.2215 10.1318C53.7179 10.8015 53.4662 11.9023 53.4662 13.4317V21.3145H49.3359V6.28018Z" fill="#231F20"/>
<path d="M64.9521 13.8118C64.9521 12.6092 65.137 11.519 65.5039 10.5387C65.8709 9.56107 66.3959 8.72538 67.0735 8.03701C67.7512 7.34864 68.5654 6.81562 69.5163 6.43796C70.4671 6.06029 71.5332 5.87012 72.7144 5.87012C73.8956 5.87012 74.9697 6.06029 75.9286 6.43796C76.8875 6.81562 77.7071 7.34864 78.3874 8.03701C79.0651 8.72538 79.5901 9.55839 79.957 10.5387C80.3266 11.519 80.5088 12.6092 80.5088 13.8118C80.5088 15.0145 80.324 16.0992 79.957 17.0689C79.5874 18.0385 79.0651 18.8661 78.3874 19.5545C77.7098 20.2429 76.8902 20.7759 75.9286 21.1535C74.9697 21.5312 73.8983 21.7214 72.7144 21.7214C71.5305 21.7214 70.4645 21.5312 69.5163 21.1535C68.5654 20.7759 67.7512 20.2429 67.0735 19.5545C66.3959 18.8661 65.8709 18.0385 65.5039 17.0689C65.1343 16.0992 64.9521 15.0145 64.9521 13.8118ZM69.0824 13.8118C69.0824 14.4118 69.1413 14.9984 69.2565 15.5716C69.3716 16.1448 69.5725 16.6564 69.8538 17.1117C70.135 17.5671 70.5073 17.9313 70.9734 18.2019C71.4394 18.4724 72.0207 18.609 72.7197 18.609C73.4188 18.609 74.0027 18.4724 74.4795 18.2019C74.9536 17.9313 75.3313 17.5671 75.6125 17.1117C75.8938 16.6564 76.092 16.1421 76.2098 15.5716C76.325 15.0011 76.3839 14.4118 76.3839 13.8118C76.3839 13.2118 76.325 12.6199 76.2098 12.0387C76.0946 11.4574 75.8938 10.9432 75.6125 10.4985C75.3313 10.0539 74.9536 9.68963 74.4795 9.40839C74.0054 9.12715 73.4188 8.98787 72.7197 8.98787C72.0207 8.98787 71.4394 9.12983 70.9734 9.40839C70.5073 9.68963 70.135 10.0539 69.8538 10.4985C69.5725 10.9458 69.3743 11.4574 69.2565 12.0387C69.1413 12.6199 69.0824 13.2118 69.0824 13.8118Z" fill="#231F20"/>
<path d="M82.0251 6.28018H85.9518V8.37475H86.0402C86.5625 7.52299 87.2428 6.89087 88.0758 6.48374C88.9088 6.07661 89.7633 5.87305 90.6365 5.87305C91.7427 5.87305 92.648 6.02304 93.3551 6.32303C94.0622 6.62302 94.6194 7.04087 95.0265 7.57388C95.4336 8.1069 95.7202 8.75777 95.8836 9.52114C96.047 10.2872 96.13 11.1363 96.13 12.0657V21.3145H91.9998V12.821C91.9998 11.5809 91.8016 10.6541 91.4025 10.0434C91.0061 9.43275 90.3204 9.1274 89.3508 9.1274C88.2258 9.1274 87.4116 9.46221 86.908 10.1318C86.4045 10.8015 86.1527 11.9023 86.1527 13.4317V21.3145H82.0225V6.28018H82.0251Z" fill="#231F20"/>
<path d="M108.84 19.3966H108.781C108.296 20.2108 107.656 20.8028 106.86 21.1697C106.065 21.5367 105.184 21.7215 104.214 21.7215C103.07 21.7215 102.076 21.4992 101.233 21.0519C100.389 20.6073 99.6926 20.01 99.1382 19.2627C98.5864 18.5154 98.1686 17.6583 97.8873 16.6886C97.6061 15.719 97.4668 14.7119 97.4668 13.6646C97.4668 12.6173 97.6061 11.6826 97.8873 10.7424C98.1686 9.80226 98.5864 8.97461 99.1382 8.25678C99.6899 7.53894 100.384 6.96307 101.217 6.52648C102.05 6.08988 103.019 5.87293 104.126 5.87293C105.017 5.87293 105.867 6.0631 106.67 6.44077C107.474 6.81843 108.111 7.37556 108.574 8.11214H108.633V0.550781H112.764V21.3171H108.837V19.3966H108.84ZM108.781 13.753C108.781 13.153 108.722 12.5611 108.607 11.9799C108.491 11.3986 108.291 10.8897 108.009 10.4531C107.728 10.0165 107.358 9.66298 106.903 9.39245C106.448 9.12193 105.891 8.98532 105.232 8.98532C104.573 8.98532 103.981 9.12193 103.515 9.39245C103.049 9.66298 102.676 10.0219 102.395 10.4692C102.114 10.9165 101.91 11.4254 101.785 11.9959C101.659 12.5691 101.594 13.1638 101.594 13.7852C101.594 14.3664 101.661 14.9476 101.798 15.5289C101.935 16.1101 102.151 16.6297 102.451 17.0851C102.751 17.5404 103.129 17.91 103.584 18.1913C104.04 18.4725 104.589 18.6118 105.226 18.6118C105.904 18.6118 106.472 18.4752 106.927 18.2047C107.383 17.9341 107.747 17.5699 108.017 17.1145C108.288 16.6592 108.483 16.1396 108.599 15.5583C108.714 14.9771 108.773 14.3771 108.773 13.7557L108.781 13.753Z" fill="#231F20"/>
<path d="M115.123 10.9059C115.182 9.93632 115.423 9.13278 115.849 8.49262C116.275 7.85246 116.818 7.33819 117.477 6.95249C118.136 6.56411 118.873 6.28823 119.687 6.12484C120.501 5.96145 121.334 5.87842 122.189 5.87842C122.944 5.87842 123.71 5.93199 124.487 6.03913C125.261 6.14627 125.971 6.35519 126.611 6.66321C127.251 6.97392 127.773 7.41051 128.18 7.97299C128.588 8.53547 128.791 9.26134 128.791 10.1533V17.9771C128.791 18.6548 128.829 19.3057 128.906 19.9244C128.984 20.5458 129.121 21.0092 129.313 21.3199H125.124C125.047 21.0868 124.982 20.8511 124.934 20.6074C124.886 20.3663 124.851 20.1172 124.832 19.8655C124.173 20.5431 123.397 21.0252 122.505 21.3038C121.613 21.585 120.702 21.727 119.77 21.727C119.052 21.727 118.382 21.6359 117.764 21.4511C117.142 21.2663 116.601 20.9904 116.135 20.6235C115.669 20.2565 115.308 19.7905 115.045 19.228C114.783 18.6655 114.651 17.9959 114.651 17.2218C114.651 16.37 114.796 15.6656 115.088 15.1138C115.38 14.5621 115.766 14.1201 116.25 13.7907C116.735 13.4612 117.282 13.2148 117.892 13.0487C118.503 12.8853 119.13 12.7541 119.767 12.655C120.407 12.5586 121.018 12.4809 121.599 12.422C122.181 12.363 122.7 12.2773 123.156 12.1595C123.611 12.0443 123.975 11.8729 124.246 11.6505C124.516 11.4282 124.653 11.1041 124.653 10.6756C124.653 10.247 124.581 9.87472 124.436 9.6149C124.291 9.35509 124.096 9.14885 123.855 9.00421C123.611 8.85957 123.332 8.76314 123.011 8.71225C122.692 8.66404 122.347 8.63993 121.98 8.63993C121.184 8.63993 120.549 8.81404 120.075 9.16224C119.599 9.51044 119.323 10.0917 119.248 10.9086H115.117L115.123 10.9059ZM124.664 13.9594C124.489 14.1148 124.27 14.2353 124.01 14.3237C123.747 14.4121 123.466 14.4844 123.166 14.5406C122.866 14.5996 122.545 14.6478 122.207 14.6853C121.867 14.7254 121.543 14.7737 121.232 14.8299C120.903 14.8888 120.592 14.9665 120.303 15.0629C120.014 15.1594 119.754 15.2906 119.532 15.4567C119.309 15.6227 119.13 15.8343 118.993 16.0968C118.857 16.3593 118.79 16.6727 118.79 17.0423C118.79 17.4307 118.857 17.7441 118.993 17.9878C119.13 18.2316 119.312 18.4244 119.545 18.5691C119.778 18.7137 120.049 18.8155 120.359 18.8744C120.67 18.9333 120.989 18.9628 121.318 18.9628C122.132 18.9628 122.762 18.8262 123.209 18.5557C123.654 18.2852 123.983 17.9584 124.197 17.5807C124.409 17.203 124.54 16.82 124.591 16.4316C124.639 16.0433 124.664 15.7326 124.664 15.5022V13.9621V13.9594Z" fill="#231F20"/>
<path d="M130.941 0.550781H135.071V21.3171H130.941V0.550781Z" fill="#231F20"/>
<path d="M141.151 14.8004C141.21 16.1182 141.548 17.0825 142.169 17.6932C142.791 18.3039 143.683 18.6092 144.845 18.6092C145.678 18.6092 146.396 18.4003 146.999 17.9851C147.599 17.5673 147.968 17.128 148.105 16.662H151.74C151.158 18.4458 150.266 19.7342 149.064 20.5297C147.861 21.3252 146.407 21.7216 144.7 21.7216C143.517 21.7216 142.451 21.5288 141.502 21.1404C140.551 20.752 139.748 20.211 139.089 19.5119C138.43 18.8128 137.921 17.9798 137.562 17.0102C137.203 16.0406 137.024 14.9745 137.024 13.8121C137.024 12.6496 137.209 11.6398 137.576 10.6702C137.943 9.7006 138.468 8.86223 139.145 8.15511C139.823 7.44799 140.632 6.89087 141.575 6.48374C142.515 6.07661 143.557 5.87305 144.7 5.87305C145.981 5.87305 147.095 6.11947 148.046 6.61499C148.997 7.11051 149.776 7.77477 150.387 8.60778C150.998 9.44079 151.44 10.3916 151.71 11.4577C151.981 12.5237 152.077 13.638 152.002 14.8031H141.154L141.151 14.8004ZM147.869 12.1836C147.676 11.1363 147.331 10.3408 146.838 9.7997C146.342 9.25597 145.592 8.98544 144.583 8.98544C143.924 8.98544 143.375 9.09794 142.941 9.32025C142.504 9.54257 142.156 9.81845 141.893 10.1479C141.631 10.4774 141.446 10.8256 141.342 11.1952C141.235 11.5648 141.173 11.8943 141.151 12.1836H147.869Z" fill="#231F20"/>
</g>
<defs>
<clipPath id="clip0_175_649">
<rect width="151.46" height="21.1734" fill="white" transform="translate(0.5625 0.550781)"/>
</clipPath>
</defs>
</svg>
