<svg width="151" height="26" viewBox="0 0 151 26" fill="none" xmlns="http://www.w3.org/2000/svg">
<g clip-path="url(#clip0_175_644)">
<path d="M78.3094 6.49394L75.423 11.3684H77.7952L78.3074 6.49394H78.3094ZM29.4466 2.38985H27.1374L22.8402 12.3929C23.4805 12.2649 25.4685 12.0088 25.9828 11.8807C26.5601 11.6876 27.0723 11.1103 27.7147 9.63655C28.4201 8.16079 29.4466 5.53246 29.9588 4.18679C30.4711 2.84112 30.0239 2.39189 29.4466 2.39189M119.863 0.979136C121.08 0.979136 121.658 2.00567 120.44 3.28832C119.222 4.50593 106.973 17.8447 106.589 18.357C106.205 18.8062 106.012 19.3185 106.717 19.3185H114.155L113.514 20.9853H102.036C100.69 20.9853 100.176 20.0238 101.458 18.6761C102.741 17.2654 115.116 3.9266 115.63 3.41435C116.08 2.9021 115.952 2.64395 115.502 2.64395H108.77L109.347 1.04012L119.865 0.975071L119.863 0.979136ZM95.175 0.979136C95.175 0.979136 88.5056 16.8182 87.9934 17.9728C87.4811 19.0623 88.1214 19.2554 88.7638 19.2554H93.124L92.4837 20.9223H84.5316C83.0559 20.9223 82.5436 19.9608 83.314 18.0358C84.0844 16.1759 90.6888 0.979136 90.6888 0.979136H95.1771H95.175ZM82.9278 0.979136L81.261 20.9223H76.8357L77.6691 12.8422H74.0773L68.7556 20.9223H64.5234C64.5234 20.9223 76.7076 2.9021 77.1548 2.26179C77.6021 1.62148 78.5005 0.979136 79.1429 0.979136H82.9258H82.9278ZM71.1928 0.979136L62.7285 20.9223H58.0471L66.7025 0.979136H71.1908H71.1928ZM107.294 0.979136L98.8299 20.9223H94.1485L102.806 0.979136H107.294ZM64.3303 0.979136L63.69 2.38985H57.791C56.3153 2.38985 56.1872 3.03017 55.803 3.73552C55.4818 4.44088 49.967 17.3305 49.6479 18.0358C49.3267 18.7412 49.3267 19.2534 50.2882 19.2534H56.2522L55.74 20.9203H46.1861C44.5193 20.9203 44.1351 19.8307 44.7754 18.3549C45.4157 16.8792 51.1237 3.60543 51.5729 2.45287C52.0221 1.29828 53.3048 0.977104 54.6504 0.977104H64.3324L64.3303 0.979136ZM50.2862 0.979136L49.5808 2.32481H44.2591C42.7833 2.32481 42.2711 2.70899 41.7589 3.86359C41.2466 4.95313 39.0655 10.1488 39.0655 10.1488H44.7734L44.003 11.6246H38.4882C38.4882 11.6246 36.3721 16.4991 35.7948 17.7167C35.2826 18.9343 35.4106 19.3205 36.3071 19.3205H42.2711L41.5657 20.9873H32.203C30.9203 20.9873 30.0218 20.347 30.8573 18.359C31.6907 16.371 36.6933 4.63603 37.3986 3.09725C38.104 1.49342 39.1935 1.04622 40.7974 1.04622L50.2882 0.981169L50.2862 0.979136ZM135.893 0.979136L135.187 2.32481H129.866C128.39 2.32481 127.878 2.70899 127.365 3.86359C126.853 4.95313 124.672 10.1488 124.672 10.1488H130.38L129.61 11.6246H124.095C124.095 11.6246 121.979 16.4991 121.401 17.7167C120.889 18.9343 121.017 19.3205 121.914 19.3205H127.878L127.172 20.9873H117.81C116.527 20.9873 115.628 20.347 116.464 18.359C117.297 16.371 122.3 4.63603 123.005 3.09725C123.711 1.49342 124.8 1.04622 126.404 1.04622L135.895 0.981169L135.893 0.979136ZM33.1014 1.04418C34.7683 1.04418 35.4736 2.26179 34.8333 4.12174C34.193 5.91665 33.4226 7.58349 32.268 10.1488C31.1134 12.7141 30.345 13.0353 28.229 13.2914C26.1129 13.6126 22.0739 14.1248 22.0739 14.1248L19.0593 21.0504H14.6991L23.5476 1.1072L33.1014 1.04215V1.04418ZM21.1103 1.04418L20.405 2.4549H13.9917C13.1583 2.4549 12.646 2.96715 12.1968 3.73756C11.7476 4.50796 11.6195 5.08323 11.1703 5.9817C10.721 6.88016 10.7861 7.90466 11.5545 8.54701C12.3879 9.18732 13.2863 10.0858 14.1198 10.7911C15.6585 12.1368 16.1078 12.7792 14.8251 15.6006C13.8636 17.8447 14.3759 16.8182 13.4795 18.6782C12.646 20.5381 11.6845 20.9223 10.2088 20.9223H0.0776367L0.976105 19.2554H7.26132C8.41591 19.2554 8.73708 18.6782 9.18429 17.6516C9.69653 16.6901 9.8246 16.369 10.4669 14.8952C11.1073 13.4195 11.2373 12.7141 10.4019 11.9457C9.56847 11.1123 8.47893 10.2138 7.19627 9.05925C5.97866 7.96971 5.97866 7.64854 6.61898 6.10976C7.25929 4.50593 7.51744 3.99368 8.15776 2.58296C8.79807 1.1072 9.95266 0.979136 11.1073 0.979136L21.1103 1.04418ZM136.6 19.1924H137.69C138.844 19.1924 139.165 18.6151 139.55 17.7817C139.934 16.9483 144.871 5.66256 145.386 4.25184C145.963 2.84112 145.514 2.51995 144.68 2.51995H141.731L134.612 19.1924H136.023H136.6ZM129.481 20.8593L138.074 0.851074H148.91C150.514 0.851074 150.77 2.4549 150.321 3.67251C149.872 4.8271 144.613 16.8832 144.036 18.357C143.396 19.8327 142.497 20.8572 141.021 20.8572H129.479L129.481 20.8593Z" fill="black"/>
<path d="M774.024 323.134L771.137 328.008H773.51L774.022 323.134H774.024ZM725.161 319.03H722.852L718.555 329.033C719.195 328.905 721.183 328.649 721.697 328.521C722.275 328.327 722.787 327.75 723.429 326.276C724.135 324.801 725.161 322.172 725.673 320.827C726.186 319.481 725.738 319.032 725.161 319.032M815.577 317.619C816.795 317.619 817.372 318.646 816.154 319.928C814.937 321.146 802.687 334.485 802.303 334.997C801.919 335.446 801.726 335.958 802.431 335.958H809.869L809.229 337.625H797.75C796.404 337.625 795.89 336.664 797.173 335.316C798.455 333.905 810.831 320.566 811.345 320.054C811.794 319.542 811.666 319.284 811.217 319.284H804.484L805.062 317.68L815.579 317.615L815.577 317.619ZM790.889 317.619C790.889 317.619 784.22 333.458 783.708 334.613C783.196 335.702 783.836 335.895 784.478 335.895H788.838L788.198 337.562H780.246C778.77 337.562 778.258 336.601 779.028 334.676C779.799 332.816 786.403 317.619 786.403 317.619H790.891H790.889ZM778.642 317.619L776.975 337.562H772.55L773.384 329.482H769.792L764.47 337.562H760.238C760.238 337.562 772.422 319.542 772.869 318.902C773.316 318.261 774.215 317.619 774.857 317.619H778.64H778.642ZM766.907 317.619L758.443 337.562H753.762L762.417 317.619H766.905H766.907ZM803.009 317.619L794.544 337.562H789.863L798.52 317.619H803.009ZM760.045 317.619L759.404 319.03H753.505C752.03 319.03 751.902 319.67 751.517 320.375C751.196 321.081 745.682 333.97 745.362 334.676C745.041 335.381 745.041 335.893 746.003 335.893H751.967L751.454 337.56H741.901C740.234 337.56 739.85 336.471 740.49 334.995C741.13 333.519 746.838 320.245 747.287 319.093C747.737 317.938 749.019 317.617 750.365 317.617H760.047L760.045 317.619ZM746.001 317.619L745.295 318.965H739.974C738.498 318.965 737.986 319.349 737.473 320.503C736.961 321.593 734.78 326.789 734.78 326.789H740.488L739.717 328.264H734.203C734.203 328.264 732.087 333.139 731.509 334.357C730.997 335.574 731.125 335.96 732.022 335.96H737.986L737.28 337.627H727.917C726.635 337.627 725.736 336.987 726.572 334.999C727.405 333.011 732.408 321.276 733.113 319.737C733.818 318.133 734.908 317.686 736.512 317.686L746.003 317.621L746.001 317.619ZM831.607 317.619L830.902 318.965H825.58C824.104 318.965 823.592 319.349 823.08 320.503C822.568 321.593 820.386 326.789 820.386 326.789H826.094L825.324 328.264H819.809C819.809 328.264 817.693 333.139 817.116 334.357C816.604 335.574 816.732 335.96 817.628 335.96H823.592L822.887 337.627H813.524C812.241 337.627 811.343 336.987 812.178 334.999C813.012 333.011 818.014 321.276 818.72 319.737C819.425 318.133 820.515 317.686 822.118 317.686L831.609 317.621L831.607 317.619ZM728.816 317.684C730.483 317.684 731.188 318.902 730.548 320.762C729.907 322.556 729.137 324.223 727.982 326.789C726.828 329.354 726.06 329.675 723.943 329.931C721.827 330.252 717.788 330.765 717.788 330.765L714.774 337.69H710.414L719.262 317.747L728.816 317.682V317.684ZM716.825 317.684L716.119 319.095H709.706C708.873 319.095 708.36 319.607 707.911 320.377C707.462 321.148 707.334 321.723 706.885 322.622C706.435 323.52 706.501 324.544 707.269 325.187C708.102 325.827 709.001 326.726 709.834 327.431C711.373 328.777 711.822 329.419 710.54 332.24C709.578 334.485 710.09 333.458 709.194 335.318C708.36 337.178 707.399 337.562 705.923 337.562H695.792L696.691 335.895H702.976C704.13 335.895 704.452 335.318 704.899 334.291C705.411 333.33 705.539 333.009 706.181 331.535C706.822 330.059 706.952 329.354 706.116 328.586C705.283 327.752 704.193 326.854 702.911 325.699C701.693 324.61 701.693 324.288 702.333 322.75C702.974 321.146 703.232 320.634 703.872 319.223C704.512 317.747 705.667 317.619 706.822 317.619L716.825 317.684ZM832.315 335.832H833.404C834.559 335.832 834.88 335.255 835.264 334.422C835.648 333.588 840.586 322.302 841.1 320.892C841.677 319.481 841.228 319.16 840.395 319.16H837.445L830.327 335.832H831.737H832.315ZM825.196 337.499L833.788 317.491H844.625C846.229 317.491 846.485 319.095 846.036 320.312C845.586 321.467 840.328 333.523 839.75 334.997C839.11 336.473 838.212 337.497 836.736 337.497H825.194L825.196 337.499Z" fill="black"/>
<path d="M147.52 23.6971C147.52 24.563 146.839 25.244 145.955 25.244C145.071 25.244 144.379 24.563 144.379 23.6971C144.379 22.8311 145.079 22.1685 145.955 22.1685C146.831 22.1685 147.52 22.8494 147.52 23.6971ZM144.77 23.6971C144.77 24.378 145.274 24.9187 145.963 24.9187C146.652 24.9187 147.128 24.378 147.128 23.7072C147.128 23.0364 146.634 22.4774 145.953 22.4774C145.272 22.4774 144.77 23.0283 144.77 23.6991V23.6971ZM145.711 24.498H145.357V22.9694C145.497 22.9409 145.693 22.9226 145.945 22.9226C146.233 22.9226 146.363 22.9694 146.475 23.0344C146.558 23.0994 146.624 23.2214 146.624 23.3698C146.624 23.5385 146.493 23.6686 146.306 23.7235V23.7418C146.455 23.7987 146.54 23.9105 146.587 24.1138C146.634 24.3475 146.662 24.439 146.699 24.4959H146.317C146.27 24.439 146.241 24.3008 146.195 24.1239C146.166 23.9552 146.073 23.8821 145.878 23.8821H145.711V24.498ZM145.721 23.632H145.89C146.085 23.632 146.243 23.567 146.243 23.4084C146.243 23.2682 146.142 23.1747 145.918 23.1747C145.825 23.1747 145.76 23.1848 145.723 23.193V23.632H145.721Z" fill="black"/>
</g>
<defs>
<clipPath id="clip0_175_644">
<rect width="150.443" height="24.3928" fill="white" transform="translate(0.0742188 0.851074)"/>
</clipPath>
</defs>
</svg>
