<svg width="128" height="16" viewBox="0 0 128 16" fill="none" xmlns="http://www.w3.org/2000/svg">
<g clip-path="url(#clip0_175_660)">
<path d="M54.7324 9.22386C56.5407 11.2535 58.2916 13.2196 60.0857 15.2331C59.9378 15.2436 59.8434 15.2566 59.7497 15.2566C55.9791 15.2578 52.209 15.259 48.4383 15.2504C48.3051 15.2504 48.1239 15.1894 48.0474 15.0926C46.0215 12.521 44.0067 9.9415 41.9907 7.36257C41.9672 7.33236 41.9512 7.29598 41.905 7.21768C42.0548 7.2109 42.1707 7.20104 42.2866 7.20104C44.5055 7.20042 46.725 7.18871 48.9439 7.20535C49.9759 7.21337 50.7065 6.81262 51.0653 5.82063C51.2429 5.32988 51.4328 4.8422 51.5857 4.34343C51.8027 3.63566 51.4174 3.11531 50.6664 3.10668C49.4852 3.09312 48.3033 3.10175 47.122 3.10113C45.7965 3.10113 44.4716 3.10668 43.146 3.09558C42.9346 3.09373 42.8495 3.16032 42.7792 3.35637C41.3896 7.22138 39.9882 11.0827 38.6041 14.9495C38.5024 15.2344 38.368 15.3065 38.0813 15.3059C34.876 15.2954 31.6706 15.2991 28.4653 15.2991C28.3531 15.2991 28.2409 15.2991 28.0898 15.2991C28.1262 15.1709 28.149 15.0673 28.1848 14.968C29.9333 10.1326 31.6836 5.29782 33.4283 0.461164C33.4974 0.27004 33.5812 0.194824 33.7977 0.194824C42.7459 0.201606 51.6942 0.19914 60.6425 0.205305C60.9365 0.205305 61.2405 0.24168 61.5222 0.321829C62.4372 0.583236 62.8706 1.31074 62.587 2.22073C62.2276 3.37364 61.7984 4.50496 61.3915 5.64246C61.1813 6.23062 60.9631 6.81632 60.7325 7.39709C60.2867 8.51794 59.4532 9.14433 58.2491 9.19858C57.2133 9.24544 56.1745 9.2177 55.1369 9.22263C55.0284 9.22263 54.9199 9.22263 54.733 9.22263L54.7324 9.22386Z" fill="black"/>
<path d="M93.0813 0.20135C92.7188 1.19766 92.3766 2.13909 92.0264 3.10211H91.6275C86.244 3.10211 80.8599 3.10396 75.4764 3.09594C75.2174 3.09594 75.1058 3.17239 75.022 3.41654C74.739 4.2396 74.427 5.0528 74.1274 5.87031C74.0892 5.97451 74.059 6.08178 74.0115 6.2316H90.9222C90.7749 6.63542 90.646 6.98869 90.5172 7.34258C90.3347 7.8432 90.1355 8.33827 89.9783 8.84629C89.9025 9.09167 89.7804 9.14346 89.5412 9.14284C84.1367 9.13606 78.7329 9.14099 73.3284 9.12928C73.0146 9.12866 72.882 9.2199 72.792 9.51337C72.6453 9.99241 72.4418 10.4536 72.2717 10.9258C71.9967 11.6872 72.3752 12.3099 73.181 12.424C73.3327 12.4456 73.4881 12.4443 73.6422 12.445C78.5121 12.4462 83.3821 12.4456 88.252 12.4456H88.6707C88.5868 12.6749 88.5159 12.871 88.4438 13.067C88.2033 13.7206 87.9536 14.3716 87.7274 15.0301C87.6552 15.2403 87.5517 15.3063 87.3309 15.3056C84.6287 15.2976 81.9265 15.3007 79.2242 15.3007C74.8062 15.3007 70.3882 15.2908 65.9701 15.3087C65.1027 15.3124 64.4153 15.0202 63.8561 14.3753C63.3388 13.7779 62.8086 13.1916 62.2926 12.5929C61.7938 12.014 61.8024 11.3426 62.0324 10.6761C62.5435 9.19463 63.0873 7.72483 63.6181 6.2501C64.308 4.33208 65.0016 2.41468 65.6841 0.4942C65.7593 0.281498 65.8487 0.195801 66.091 0.195801C74.9782 0.203199 83.8655 0.201966 92.7527 0.201966C92.8439 0.201966 92.9346 0.201966 93.0807 0.201966L93.0813 0.20135Z" fill="black"/>
<path d="M6.77336 15.3006C8.24932 11.2137 9.70926 7.17172 11.1803 3.10017H0.980469C1.0039 3.00954 1.01561 2.94049 1.03904 2.87576C1.33374 2.05701 1.63399 1.23949 1.92375 0.418896C1.97924 0.262299 2.05076 0.169819 2.22894 0.200029C2.27887 0.208661 2.33128 0.201262 2.38307 0.201262C11.9984 0.201262 21.6138 0.201262 31.2291 0.201262C31.35 0.201262 31.4708 0.201262 31.6311 0.201262C31.2969 1.15626 30.9813 2.07427 30.6453 2.9855C30.6206 3.05208 30.4505 3.09709 30.3475 3.09771C28.7451 3.10449 27.1422 3.10264 25.5398 3.10264C24.1939 3.10264 22.8481 3.10757 21.5028 3.09709C21.2926 3.09524 21.2063 3.15874 21.1353 3.35665C19.7463 7.22165 18.3456 11.0823 16.9602 14.9486C16.8604 15.2273 16.7303 15.3093 16.4399 15.308C13.348 15.2969 10.2555 15.3012 7.16362 15.3012C7.05141 15.3012 6.9392 15.3012 6.77397 15.3012L6.77336 15.3006Z" fill="black"/>
<path d="M104.162 7.24014C104.798 6.84186 105.422 6.45037 106.048 6.0601C109.102 4.15195 112.157 2.2438 115.215 0.341201C115.338 0.264751 115.497 0.208031 115.64 0.207414C119.636 0.200016 123.633 0.201866 127.63 0.201866C127.69 0.201866 127.75 0.207414 127.836 0.265368C123.803 2.61434 119.77 4.9633 115.701 7.33323C118.04 9.97875 120.367 12.6095 122.747 15.3012C122.582 15.3012 122.495 15.3012 122.408 15.3012C118.514 15.3012 114.62 15.3031 110.726 15.2938C110.586 15.2938 110.398 15.2205 110.316 15.1163C108.297 12.5527 106.289 9.97998 104.279 7.40906C104.242 7.36221 104.21 7.31104 104.162 7.24137V7.24014Z" fill="black"/>
<path d="M106.077 0.215301C105.787 1.02295 105.512 1.79238 105.234 2.56057C103.736 6.70178 102.235 10.8418 100.744 14.9861C100.657 15.2296 100.546 15.3073 100.288 15.3066C96.9595 15.2974 93.6309 15.3005 90.3029 15.3005C90.2018 15.3005 90.1001 15.3005 89.957 15.3005C90.2302 14.5459 90.4909 13.8257 90.7511 13.105C92.2733 8.896 93.7968 4.68759 95.3153 0.477324C95.38 0.298532 95.4404 0.193722 95.6704 0.194339C99.0601 0.203587 102.45 0.200504 105.84 0.20112C105.901 0.20112 105.961 0.207902 106.077 0.214684L106.077 0.215301Z" fill="black"/>
</g>
<defs>
<clipPath id="clip0_175_660">
<rect width="126.855" height="15.1148" fill="white" transform="translate(0.980469 0.194336)"/>
</clipPath>
</defs>
</svg>
